<?xml version="1.0" encoding="UTF-8" standalone="no"?>
<svg
   xmlns:dc="http://purl.org/dc/elements/1.1/"
   xmlns:cc="http://creativecommons.org/ns#"
   xmlns:rdf="http://www.w3.org/1999/02/22-rdf-syntax-ns#"
   xmlns:svg="http://www.w3.org/2000/svg"
   xmlns="http://www.w3.org/2000/svg"
   xmlns:sodipodi="http://sodipodi.sourceforge.net/DTD/sodipodi-0.dtd"
   xmlns:inkscape="http://www.inkscape.org/namespaces/inkscape"
   version="1.1"
   id="svg2"
   xml:space="preserve"
   width="473.25201"
   height="226.90401"
   viewBox="0 0 473.25201 226.90401"
   sodipodi:docname="normal.svg"
   inkscape:version="1.0.1 (0767f8302a, 2020-10-17)"><metadata
     id="metadata8"><rdf:RDF><cc:Work
         rdf:about=""><dc:format>image/svg+xml</dc:format><dc:type
           rdf:resource="http://purl.org/dc/dcmitype/StillImage" /><dc:title></dc:title></cc:Work></rdf:RDF></metadata><defs
     id="defs6" /><sodipodi:namedview
     pagecolor="#ffffff"
     bordercolor="#666666"
     borderopacity="1"
     objecttolerance="10"
     gridtolerance="10"
     guidetolerance="10"
     inkscape:pageopacity="0"
     inkscape:pageshadow="2"
     inkscape:window-width="1848"
     inkscape:window-height="1016"
     id="namedview4"
     showgrid="false"
     inkscape:zoom="1.9662938"
     inkscape:cx="167.39017"
     inkscape:cy="134.63652"
     inkscape:window-x="72"
     inkscape:window-y="27"
     inkscape:window-maximized="1"
     inkscape:current-layer="g10" /><g
     id="g10"
     inkscape:groupmode="layer"
     inkscape:label="normal"
     transform="matrix(1.3333333,0,0,-1.3333333,0,226.904)"><g
       id="g12"
       transform="translate(0.05,0.05)"><g
         id="g14"><g
           id="g16"><g
             id="g18"><path
               d="M 0,0 H 283.4681 M 0,28.3468 H 283.4681 M 0,56.69362 H 283.4681 M 0,85.04042 H 283.4681 M 0,113.38724 H 283.4681 M 0,141.73404 H 283.4681 M 0,170.07089 H 283.4681 M 0,0 V 170.08086 M 28.3468,0 V 170.08086 M 56.69362,0 V 170.08086 M 85.04042,0 V 170.08086 M 113.38724,0 V 170.08086 M 141.73404,0 V 170.08086 M 170.08086,0 V 170.08086 M 198.42766,0 V 170.08086 M 226.77448,0 V 170.08086 M 255.12128,0 V 170.08086 M 283.45813,0 v 170.08086"
               style="fill:none;stroke:#d9d9d9;stroke-width:0.09962;stroke-linecap:butt;stroke-linejoin:miter;stroke-miterlimit:10;stroke-dasharray:none;stroke-opacity:1"
               id="path20" /></g><g
             id="g22" /><g
             id="g24" /><g
             id="g26" /><g
             id="g28" /><g
             id="g30" /><g
             id="g32" /><g
             id="g34"><path
               d="m 28.3468,14.17339 85.04044,28.34681 141.73404,-14.1734 -28.3468,99.21382"
               style="fill:none;stroke:#000000;stroke-width:1.19553;stroke-linecap:butt;stroke-linejoin:miter;stroke-miterlimit:10;stroke-dasharray:none;stroke-opacity:1"
               id="path36" /></g><g
             id="g38"><path
               d="M 226.77448,127.56062 141.73404,141.73404 42.5202,127.56062 28.3468,14.17339"
               style="fill:none;stroke:#000000;stroke-width:1.19553;stroke-linecap:butt;stroke-linejoin:miter;stroke-miterlimit:10;stroke-dasharray:2.98883, 2.98883;stroke-dashoffset:0;stroke-opacity:1"
               id="path40" /></g><g
             id="g42" /><g
             id="g44"><path
               d="M 35.43349,70.86699 11.93231,73.80455"
               style="fill:none;stroke:#000000;stroke-width:0.79701;stroke-linecap:butt;stroke-linejoin:miter;stroke-miterlimit:10;stroke-dasharray:none;stroke-opacity:1"
               id="path46" /><g
               id="g48"
               transform="matrix(-0.99225,0.124,-0.124,-0.99225,11.93233,73.80453)"><g
                 id="g50"><path
                   d="M 4.66248,0 C 3.28098,0.25902 1.0361,1.0361 -0.51805,1.94269 V -1.94269 C 1.0361,-1.0361 3.28098,-0.25902 4.66248,0"
                   style="fill:#000000;fill-opacity:1;fill-rule:nonzero;stroke:none"
                   id="path52" /></g></g></g><g
             id="g54" /><g
             id="g56"><path
               d="M 70.867,28.34679 78.35619,5.8789"
               style="fill:none;stroke:#000000;stroke-width:0.79701;stroke-linecap:butt;stroke-linejoin:miter;stroke-miterlimit:10;stroke-dasharray:none;stroke-opacity:1"
               id="path58" /><g
               id="g60"
               transform="matrix(0.31621,-0.94864,0.94864,0.31621,78.35617,5.87892)"><g
                 id="g62"><path
                   d="M 4.66248,0 C 3.28098,0.25902 1.0361,1.0361 -0.51805,1.94269 V -1.94269 C 1.0361,-1.0361 3.28098,-0.25902 4.66248,0"
                   style="fill:#000000;fill-opacity:1;fill-rule:nonzero;stroke:none"
                   id="path64" /></g></g></g><g
             id="g66" /><g
             id="g68"><path
               d="M 184.25424,35.43349 181.8979,11.86812"
               style="fill:none;stroke:#000000;stroke-width:0.79701;stroke-linecap:butt;stroke-linejoin:miter;stroke-miterlimit:10;stroke-dasharray:none;stroke-opacity:1"
               id="path70" /><g
               id="g72"
               transform="matrix(-0.09947,-0.995,0.995,-0.09947,181.89792,11.86813)"><g
                 id="g74"><path
                   d="M 4.66248,0 C 3.28098,0.25902 1.0361,1.0361 -0.51805,1.94269 V -1.94269 C 1.0361,-1.0361 3.28098,-0.25902 4.66248,0"
                   style="fill:#000000;fill-opacity:1;fill-rule:nonzero;stroke:none"
                   id="path76" /></g></g></g><g
             id="g78" /><g
             id="g80"><path
               d="m 240.94788,77.9537 22.77209,6.50625"
               style="fill:none;stroke:#000000;stroke-width:0.79701;stroke-linecap:butt;stroke-linejoin:miter;stroke-miterlimit:10;stroke-dasharray:none;stroke-opacity:1"
               id="path82" /><g
               id="g84"
               transform="matrix(0.9615,0.27469,-0.27469,0.9615,263.71997,84.45993)"><g
                 id="g86"><path
                   d="M 4.66248,0 C 3.28098,0.25902 1.0361,1.0361 -0.51805,1.94269 V -1.94269 C 1.0361,-1.0361 3.28098,-0.25902 4.66248,0"
                   style="fill:#000000;fill-opacity:1;fill-rule:nonzero;stroke:none"
                   id="path88" /></g></g></g><g
             id="g90" /><g
             id="g92"><path
               d="m 184.25424,134.64732 3.89339,23.36088"
               style="fill:none;stroke:#000000;stroke-width:0.79701;stroke-linecap:butt;stroke-linejoin:miter;stroke-miterlimit:10;stroke-dasharray:none;stroke-opacity:1"
               id="path94" /><g
               id="g96"
               transform="matrix(0.16437,0.98634,-0.98634,0.16437,188.14761,158.00818)"><g
                 id="g98"><path
                   d="M 4.66248,0 C 3.28098,0.25902 1.0361,1.0361 -0.51805,1.94269 V -1.94269 C 1.0361,-1.0361 3.28098,-0.25902 4.66248,0"
                   style="fill:#000000;fill-opacity:1;fill-rule:nonzero;stroke:none"
                   id="path100" /></g></g></g><g
             id="g102" /><g
             id="g104"><path
               d="M 92.1271,134.64732 88.778,158.09277"
               style="fill:none;stroke:#000000;stroke-width:0.79701;stroke-linecap:butt;stroke-linejoin:miter;stroke-miterlimit:10;stroke-dasharray:none;stroke-opacity:1"
               id="path106" /><g
               id="g108"
               transform="matrix(-0.14139,0.98991,-0.98991,-0.14139,88.77802,158.09277)"><g
                 id="g110"><path
                   d="M 4.66248,0 C 3.28098,0.25902 1.0361,1.0361 -0.51805,1.94269 V -1.94269 C 1.0361,-1.0361 3.28098,-0.25902 4.66248,0"
                   style="fill:#000000;fill-opacity:1;fill-rule:nonzero;stroke:none"
                   id="path112" /></g></g></g><g
             id="g114"><path
               d="M 28.3468,14.17339 113.38724,42.5202 255.12128,28.3468 226.77448,127.56062 141.73404,141.73404 42.5202,127.56062 28.3468,14.17339"
               style="fill:#ececec;fill-opacity:1;fill-rule:nonzero;stroke:none"
               id="path116" /></g><g
             id="g118" /><g
             id="g120" /><g
             id="g122"><path
               d="m 311.8149,141.73404 h 14.1734"
               style="fill:none;stroke:#000000;stroke-width:1.19553;stroke-linecap:butt;stroke-linejoin:miter;stroke-miterlimit:10;stroke-dasharray:none;stroke-opacity:1"
               id="path124" /><g
               id="g126"><g
                 id="g128"
                 transform="translate(329.902,139.075)"><g
                   id="g130"><g
                     id="g132"
                     transform="translate(-329.952,-139.125)"><text
                       transform="matrix(1,0,0,-1,329.952,139.125)"
                       style="font-variant:normal;font-weight:normal;font-size:9.9626px;font-family:CMR10;-inkscape-font-specification:CMR10;writing-mode:lr-tb;fill:#000000;fill-opacity:1;fill-rule:nonzero;stroke:none"
                       id="text136"><tspan
                         x="0"
                         y="0"
                         id="tspan134">Γ</tspan></text><text
                       transform="matrix(1,0,0,-1,336.179,137.631)"
                       style="font-variant:normal;font-weight:normal;font-size:6.9738px;font-family:CMMI7;-inkscape-font-specification:CMMI7;writing-mode:lr-tb;fill:#000000;fill-opacity:1;fill-rule:nonzero;stroke:none"
                       id="text140"><tspan
                         x="0"
                         y="0"
                         id="tspan138">D</tspan></text><g
                       id="g142"
                       transform="translate(329.952,139.125)" /></g></g><g
                   id="g144"
                   transform="translate(-329.902,-139.075)" /></g></g></g><g
             id="g146"><path
               d="m 311.8149,127.56062 h 14.1734"
               style="fill:none;stroke:#000000;stroke-width:1.19553;stroke-linecap:butt;stroke-linejoin:miter;stroke-miterlimit:10;stroke-dasharray:2.98883, 2.98883;stroke-dashoffset:0;stroke-opacity:1"
               id="path148" /><g
               id="g150"><g
                 id="g152"
                 transform="translate(329.902,124.902)"><g
                   id="g154"><g
                     id="g156"
                     transform="translate(-329.952,-124.952)"><text
                       transform="matrix(1,0,0,-1,329.952,124.952)"
                       style="font-variant:normal;font-weight:normal;font-size:9.9626px;font-family:CMR10;-inkscape-font-specification:CMR10;writing-mode:lr-tb;fill:#000000;fill-opacity:1;fill-rule:nonzero;stroke:none"
                       id="text160"><tspan
                         x="0"
                         y="0"
                         id="tspan158">Γ</tspan></text><text
                       transform="matrix(1,0,0,-1,336.179,123.458)"
                       style="font-variant:normal;font-weight:normal;font-size:6.9738px;font-family:CMMI7;-inkscape-font-specification:CMMI7;writing-mode:lr-tb;fill:#000000;fill-opacity:1;fill-rule:nonzero;stroke:none"
                       id="text164"><tspan
                         x="0"
                         y="0"
                         id="tspan162">N</tspan></text><g
                       id="g166"
                       transform="translate(329.952,124.952)" /></g></g><g
                   id="g168"
                   transform="translate(-329.902,-124.902)" /></g></g></g><g
             id="g170"><path
               d="m 304.72821,112.40448 h 49.96664 v 44.48569 h -49.96664 z"
               style="fill:none;stroke:#000000;stroke-width:0.3985;stroke-linecap:butt;stroke-linejoin:miter;stroke-miterlimit:10;stroke-dasharray:none;stroke-opacity:1"
               id="path172" /><g
               id="g174"
               transform="translate(311.811,134.645)"><g
                 id="g176" /><g
                 id="g178"
                 transform="translate(-311.811,-134.645)" /></g></g></g></g></g></g></svg>
